PathFileType	4	(X/Y/Z)	Patient4_TMGait_0pt3_02_right_14.trc.trc
DataRate	CameraRate	NumFrames	NumMarkers	Units	OrigDataRate	OrigDataStartFrame	OrigNumFrames
54.687500000000	54.687500000000	4	33	mm	54.687500000000	1	       141
Frame#	Time	Sacral			L.Shoulder			Chest			R.Shoulder			Neck			R.ASIS			L.ASIS			R.Thigh.Superior			R.Thigh.Lateral			R.Thigh.Inferior			R.Patella			L.Thigh.Superior			L.Thigh.Lateral			L.Thigh.Inferior			L.Patella			L.Shank.Superior			L.Shank.Lateral			L.Shank.Inferior			R.Shank.Superior			R.Shank.Lateral			R.Shank.Inferior			R.Heel			R.Midfoot.Superior			R.Midfoot.Lateral			R.Toe			L.Heel			L.Midfoot.Lateral			L.Midfoot.Superior			L.Toe			L.Elbow			L.Wrist			R.Elbow			R.Wrist			
		X1	Y1	Z1	X2	Y2	Z2	X3	Y3	Z3	X4	Y4	Z4	X5	Y5	Z5	X6	Y6	Z6	X7	Y7	Z7	X8	Y8	Z8	X9	Y9	Z9	X10	Y10	Z10	X11	Y11	Z11	X12	Y12	Z12	X13	Y13	Z13	X14	Y14	Z14	X15	Y15	Z15	X16	Y16	Z16	X17	Y17	Z17	X18	Y18	Z18	X19	Y19	Z19	X20	Y20	Z20	X21	Y21	Z21	X22	Y22	Z22	X23	Y23	Z23	X24	Y24	Z24	X25	Y25	Z25	X26	Y26	Z26	X27	Y27	Z27	X28	Y28	Z28	X29	Y29	Z29	X30	Y30	Z30	X31	Y31	Z31	X32	Y32	Z32	X33	Y33	Z33	

1	26.290000000000	689.021936223116	987.793630921805	422.550321998836	877.602163982155	1418.485726515568	242.494854651881	977.364859653008	1347.868199149226	404.483621332889	893.204301368877	1421.382040817466	577.705508775514	865.678529432220	1479.689441757013	401.595873682867	919.694318991528	928.954585170730	541.928564651776	909.041176287022	945.233069614181	269.508947018146	986.208872709140	737.573468550509	520.584857985364	926.808907316948	624.717055287482	593.564570985687	1010.885244976617	571.961449260817	515.198574306637	1011.678148126182	459.027618532472	543.513063675577	980.028094392042	745.678760043089	319.299227482562	913.141060069954	614.338013171373	266.704236878859	1002.369880982177	552.018322910893	343.339465200415	1010.309978816241	476.080263914169	355.029412724507	970.490337239666	400.674391917762	348.743917922351	869.564215221529	297.341276807598	295.622884654599	896.131361171987	183.437340780633	371.599904576054	924.668609425750	396.719915375456	555.271338296337	796.493961445065	380.382950196783	612.767325663132	769.351277758947	269.806641374433	574.647409591511	569.780933032816	250.017285833828	535.562639448512	709.670649622443	148.329711207521	600.611154300777	602.419212159710	184.231518607139	619.650932001622	734.214784970042	25.803436969202	641.903279832761	747.519876013941	39.423016669769	408.285142442624	823.495294666807	36.402757861181	329.805529737957	907.490647108065	95.120147863538	360.164151893660	1035.660940946430	40.130153912676	332.631838876301	913.973575716535	1072.830380181353	108.537593763957	1083.796846080705	873.656518450368	116.402358001655	940.823845084120	1065.325092503812	680.448173958833	1114.719900320754	868.635223904395	681.635589924409	
2	26.308285714286	688.207964482072	986.512043671579	418.765839145788	880.054236225156	1418.157117044036	241.996423461369	977.008789970496	1346.774292254622	405.289142213852	889.914791519553	1419.283730229922	577.606869908049	865.904938774334	1478.803727154520	401.126573618811	917.732166610980	928.502729261574	540.495869959565	909.891667909975	944.606172309674	267.929072585620	988.359541741443	740.568849284811	518.567303830131	932.403481712536	626.903081359853	591.814339883397	1017.592129710037	576.212124568056	512.960722388560	1021.145160843878	462.999115672224	541.401783280749	979.665840619357	744.187723529075	317.387620997368	912.245220174475	613.073468597326	265.142705583072	1000.988262869378	550.546114362189	342.193666527907	1008.492283849209	474.611642306246	354.295645034541	967.919736275410	399.313319523854	348.049722574313	866.270719708289	296.719805786890	294.966197644488	891.562450521396	182.826563227096	371.308761020063	934.564305670463	399.575475536435	553.180780665514	805.695574104909	382.106333807398	609.099471089357	780.526273488353	270.771523248774	571.656687710231	580.459101484836	245.386694970258	530.912092047720	723.559109481433	150.293171287951	597.738061870871	615.050576230901	182.159629249735	616.036111929303	752.642889648127	29.500327331345	640.892414340372	741.849043594176	39.515967147821	408.185836982572	817.867729465710	36.394237812337	329.728774279355	901.882763176326	95.018280309653	360.099474658581	1030.020785496369	39.998055941726	332.569498384019	923.639612923406	1075.053640809973	105.297301142759	1101.337913253991	883.777813137319	113.976362124392	921.189124244182	1062.668369208918	680.973483393427	1076.575861540092	854.844594567335	687.397027472876	
3	26.326571428571	687.363663223524	985.570082282560	414.979779552213	882.640728561436	1418.075905445647	241.577242109481	976.699229175224	1345.915626774912	406.189886895289	886.629951544545	1417.475991410439	577.526468782488	866.199983649940	1478.168438524570	400.715621336826	915.701586936241	928.295314594150	539.116796464961	910.706788564120	944.214612186244	266.406185354644	990.312501397669	743.804184993311	516.509656160989	937.740080748803	629.308889853791	589.985162375057	1024.028329778332	580.686564613243	510.698241545946	1030.402905774699	467.290330371621	539.279891230953	979.085901107405	742.806471293570	315.502207392773	910.968752535668	611.996771461955	263.584270495255	999.148602231681	549.166175464749	341.025362076685	1006.164633917101	473.270823450321	353.515876167885	964.897960005798	398.113803055108	347.298626299899	862.599552893876	296.177426774276	294.271217720665	886.756698619409	182.306825631093	370.982022809394	944.477262622517	402.578015077067	551.107133359050	815.049977715142	383.487914832980	605.544413770084	792.226800721991	271.361286127750	568.732041639348	591.863956406649	239.684245114159	526.496673063717	738.391356496467	151.714179848913	594.925615384416	628.634133594969	179.121277464327	612.582526292230	772.407886515739	32.847128291612	639.801771926170	736.054963093719	39.612261755317	408.085889643574	812.119069960166	36.386198834440	329.650108509768	896.155041061198	94.929992955417	360.011217924283	1024.259640072817	39.874073964213	332.505272340848	933.378493057093	1077.581751565578	102.149602710425	1118.990760227613	894.434672668275	111.693779313971	901.021784787140	1060.613269893079	681.528225336617	1037.610042007783	841.993918981704	692.946555458523	
4	26.344857142857	686.496646622760	985.161002892191	411.302915673605	885.361878654636	1418.359281104285	241.298978135913	976.469926008758	1345.425627581962	407.216617237391	883.448043747415	1416.152496003207	577.482147687450	866.591254145709	1477.921915634279	400.410783301303	913.616279029317	928.454888274301	537.865295001940	911.443526396361	944.177645515826	265.022934393920	991.887154933550	747.277453632764	514.478029218474	942.511621745755	631.964066003622	588.127720160111	1029.816212022445	585.329730477450	508.491512507447	1039.020907022908	471.921007455522	537.222928861359	978.176214668308	741.621615995841	313.716026394839	909.136579996628	611.232858676638	262.072325357327	996.646656470522	547.961804669737	339.852889724545	1003.104746724626	472.161152965442	352.687350817418	961.259524597512	397.193006067220	346.480312715482	858.443288585955	295.766675733158	293.536610397380	881.711683963573	181.938628634083	370.611081471900	954.098060132952	405.708878447896	549.136935378388	824.393139844995	384.290214355665	602.299490548963	804.432276394769	271.376338051811	566.017548628660	604.163211090820	232.515700428221	522.603424994853	754.303094584612	152.301115395511	592.299327758773	643.391110175115	174.727027162292	609.501176589072	793.708660232421	35.647386112631	638.625080644181	730.224663593033	39.709891980054	407.987395763668	806.335872363265	36.378785768003	329.571227848059	890.394481133693	94.863930568807	359.891351956878	1018.465089138602	39.765520656871	332.440959367745	942.967967559630	1080.501228322606	99.229314132433	1136.323265104933	905.631673714220	109.709179356279	880.625784278689	1059.549784596996	682.077265669593	998.515273757124	830.968410722582	698.000629794789	
